<mxfile host="app.diagrams.net" modified="2020-07-20T09:32:55.164Z" agent="5.0 (X11; Linux x86_64) AppleWebKit/537.36 (KHTML, like Gecko) Chrome/84.0.4147.89 Safari/537.36" etag="0xgTcYpSStapE14IJiOU" version="13.4.6" type="github">
  <diagram id="3228e29e-7158-1315-38df-8450db1d8a1d" name="Page-1">
    <mxGraphModel dx="1422" dy="723" grid="1" gridSize="10" guides="1" tooltips="1" connect="1" arrows="1" fold="1" page="1" pageScale="1" pageWidth="1169" pageHeight="827" background="#ffffff" math="0" shadow="0">
      <root>
        <mxCell id="0" />
        <mxCell id="1" parent="0" />
        <mxCell id="21637" value="&lt;div style=&quot;text-align: center ; font-size: 24px&quot;&gt;&lt;b&gt;&lt;font style=&quot;font-size: 24px&quot; color=&quot;#000000&quot;&gt;Technologia&lt;/font&gt;&lt;/b&gt;&lt;/div&gt;&lt;div style=&quot;text-align: center ; font-size: 24px&quot;&gt;&lt;span&gt;&lt;b&gt;&lt;font color=&quot;#000000&quot;&gt;&lt;br&gt;&lt;/font&gt;&lt;/b&gt;&lt;/span&gt;&lt;/div&gt;&lt;div style=&quot;text-align: center ; font-size: 15px&quot;&gt;&lt;font style=&quot;font-size: 15px&quot; color=&quot;#000000&quot;&gt;Funkcjonalność, Inżynieria&lt;/font&gt;&lt;/div&gt;&lt;div style=&quot;text-align: center ; font-size: 15px&quot;&gt;&lt;span&gt;&lt;font style=&quot;font-size: 15px&quot; color=&quot;#000000&quot;&gt;Wykonalność, Realizm&lt;/font&gt;&lt;/span&gt;&lt;/div&gt;&lt;div style=&quot;text-align: center ; font-size: 15px&quot;&gt;&lt;font style=&quot;font-size: 15px&quot; color=&quot;#000000&quot;&gt;Wydajność&lt;/font&gt;&lt;/div&gt;" style="ellipse;whiteSpace=wrap;html=1;aspect=fixed;rounded=1;shadow=0;glass=0;labelBackgroundColor=none;strokeColor=#005700;strokeWidth=1;fillColor=#008a00;fontFamily=Helvetica;fontSize=16;align=center;opacity=50;verticalAlign=top;spacing=15;fontColor=#ffffff;" parent="1" vertex="1">
          <mxGeometry x="305" y="10" width="490" height="490" as="geometry" />
        </mxCell>
        <mxCell id="21638" value="&lt;font&gt;&lt;font color=&quot;#000000&quot;&gt;&lt;b&gt;&lt;font style=&quot;font-size: 24px&quot;&gt;Ludzie&lt;/font&gt;&lt;br&gt;&lt;/b&gt;&lt;br&gt;&lt;/font&gt;&lt;br&gt;&lt;/font&gt;" style="ellipse;whiteSpace=wrap;html=1;aspect=fixed;rounded=1;shadow=0;glass=0;labelBackgroundColor=none;strokeColor=#001DBC;strokeWidth=1;fillColor=#0050ef;fontFamily=Helvetica;fontSize=16;fontColor=#ffffff;align=left;opacity=50;spacing=15;" parent="1" vertex="1">
          <mxGeometry x="190" y="170" width="480" height="480" as="geometry" />
        </mxCell>
        <mxCell id="21639" value="" style="ellipse;whiteSpace=wrap;html=1;aspect=fixed;rounded=1;shadow=0;glass=0;labelBackgroundColor=none;strokeColor=#d6b656;strokeWidth=1;fontFamily=Helvetica;fontSize=16;align=left;opacity=50;spacing=15;fillColor=#FFFF00;" parent="1" vertex="1">
          <mxGeometry x="447" y="154" width="496" height="496" as="geometry" />
        </mxCell>
        <mxCell id="21640" value="&lt;div style=&quot;text-align: center ; font-size: 24px&quot;&gt;&lt;b&gt;&lt;font color=&quot;#000000&quot; style=&quot;font-size: 24px&quot;&gt;Projekt&lt;/font&gt;&lt;/b&gt;&lt;/div&gt;&lt;div style=&quot;text-align: center&quot;&gt;&lt;span style=&quot;color: rgb(0 , 0 , 0)&quot;&gt;&lt;font style=&quot;font-size: 14px&quot;&gt;Eksperymentalny zestaw&amp;nbsp;&lt;/font&gt;&lt;/span&gt;&lt;span style=&quot;font-size: 15px ; color: rgb(0 , 0 , 0)&quot;&gt;myśli projektowych,&lt;/span&gt;&lt;br&gt;&lt;/div&gt;&lt;div style=&quot;text-align: center ; font-size: 15px&quot;&gt;&lt;font style=&quot;font-size: 15px&quot; color=&quot;#000000&quot;&gt;Kreatywność,&amp;nbsp;&lt;/font&gt;&lt;/div&gt;&lt;div style=&quot;text-align: center ; font-size: 15px&quot;&gt;&lt;font style=&quot;font-size: 15px&quot;&gt;&lt;font color=&quot;#000000&quot; style=&quot;font-size: 15px&quot;&gt;Projekt wizualny&lt;/font&gt;&lt;br&gt;&lt;/font&gt;&lt;/div&gt;&lt;div style=&quot;text-align: center ; font-size: 15px&quot;&gt;&lt;font color=&quot;#000000&quot; style=&quot;font-size: 15px&quot;&gt;Projekt krytyczny,&lt;/font&gt;&lt;/div&gt;&lt;div style=&quot;text-align: center ; font-size: 15px&quot;&gt;&lt;font color=&quot;#000000&quot; style=&quot;font-size: 15px&quot;&gt;&lt;font style=&quot;font-size: 15px&quot;&gt;Sondy kulturowe&lt;/font&gt;&lt;br&gt;&lt;/font&gt;&lt;/div&gt;" style="ellipse;whiteSpace=wrap;html=1;aspect=fixed;rounded=1;shadow=0;glass=0;labelBackgroundColor=none;strokeColor=#A50040;strokeWidth=1;fillColor=#d80073;fontFamily=Helvetica;fontSize=16;fontColor=#ffffff;align=center;opacity=50;verticalAlign=bottom;spacingBottom=15;spacing=15;" parent="1" vertex="1">
          <mxGeometry x="305" y="310" width="490" height="490" as="geometry" />
        </mxCell>
        <mxCell id="XCKD8g6T_-SE91dZSnoM-21653" value="&lt;font style=&quot;font-size: 24px&quot;&gt;&lt;b&gt;Biznes&lt;br&gt;&lt;br&gt;&lt;/b&gt;&lt;/font&gt;" style="text;html=1;strokeColor=none;fillColor=none;align=center;verticalAlign=middle;whiteSpace=wrap;rounded=0;" vertex="1" parent="1">
          <mxGeometry x="875" y="387" width="10" height="30" as="geometry" />
        </mxCell>
        <mxCell id="XCKD8g6T_-SE91dZSnoM-21654" value="&lt;font style=&quot;font-size: 15px&quot;&gt;Wizja, Cele, Analiza Biznesowa, Analiza demograficzna, Budżet, Klient&lt;/font&gt;" style="text;html=1;strokeColor=none;fillColor=none;align=center;verticalAlign=middle;whiteSpace=wrap;rounded=0;" vertex="1" parent="1">
          <mxGeometry x="790" y="430" width="150" height="20" as="geometry" />
        </mxCell>
        <mxCell id="XCKD8g6T_-SE91dZSnoM-21655" style="edgeStyle=orthogonalEdgeStyle;rounded=0;orthogonalLoop=1;jettySize=auto;html=1;exitX=0.5;exitY=1;exitDx=0;exitDy=0;" edge="1" parent="1" source="XCKD8g6T_-SE91dZSnoM-21654" target="XCKD8g6T_-SE91dZSnoM-21654">
          <mxGeometry relative="1" as="geometry" />
        </mxCell>
        <mxCell id="XCKD8g6T_-SE91dZSnoM-21657" value="&lt;font style=&quot;font-size: 15px&quot;&gt;Branding, Marketing, Myślenie projektowe, Komunikacja rynkowwa&lt;/font&gt;" style="text;html=1;strokeColor=none;fillColor=none;align=center;verticalAlign=middle;whiteSpace=wrap;rounded=0;" vertex="1" parent="1">
          <mxGeometry x="670" y="370" width="120" height="340" as="geometry" />
        </mxCell>
        <mxCell id="XCKD8g6T_-SE91dZSnoM-21658" value="&lt;font style=&quot;font-size: 14px&quot; color=&quot;#ffffff&quot;&gt;Indywidualne/&lt;br&gt;Kulturalne/&lt;br&gt;Społeczne &lt;br&gt;poziomy analizy&lt;/font&gt;" style="text;html=1;strokeColor=none;fillColor=none;align=center;verticalAlign=middle;whiteSpace=wrap;rounded=0;" vertex="1" parent="1">
          <mxGeometry x="505" y="200" width="110" height="126" as="geometry" />
        </mxCell>
        <mxCell id="XCKD8g6T_-SE91dZSnoM-21660" value="&lt;font style=&quot;font-size: 15px&quot; color=&quot;#ffffff&quot;&gt;Innowacje, Badania projektowe, Interesariusze&lt;/font&gt;" style="text;html=1;strokeColor=none;fillColor=none;align=center;verticalAlign=middle;whiteSpace=wrap;rounded=0;" vertex="1" parent="1">
          <mxGeometry x="540" y="530" width="40" height="20" as="geometry" />
        </mxCell>
        <mxCell id="XCKD8g6T_-SE91dZSnoM-21662" value="&lt;font style=&quot;font-size: 14px&quot; color=&quot;#ffffff&quot;&gt;Prostota, Testowanie użyteczności,&lt;br&gt;Skuteczność, Interakcja, Prototypowanie&lt;/font&gt;" style="text;html=1;strokeColor=none;fillColor=none;align=center;verticalAlign=middle;whiteSpace=wrap;rounded=0;" vertex="1" parent="1">
          <mxGeometry x="390" y="393" width="40" height="24" as="geometry" />
        </mxCell>
        <mxCell id="XCKD8g6T_-SE91dZSnoM-21663" value="&lt;font style=&quot;font-size: 14px&quot; color=&quot;#ffffff&quot;&gt;Niezawodność&lt;br&gt;Okres ważnośći&lt;/font&gt;" style="text;html=1;strokeColor=none;fillColor=none;align=center;verticalAlign=middle;whiteSpace=wrap;rounded=0;" vertex="1" parent="1">
          <mxGeometry x="675" y="404" width="40" height="20" as="geometry" />
        </mxCell>
        <mxCell id="XCKD8g6T_-SE91dZSnoM-21664" style="edgeStyle=orthogonalEdgeStyle;rounded=0;orthogonalLoop=1;jettySize=auto;html=1;exitX=0.5;exitY=1;exitDx=0;exitDy=0;" edge="1" parent="1" source="XCKD8g6T_-SE91dZSnoM-21662" target="XCKD8g6T_-SE91dZSnoM-21662">
          <mxGeometry relative="1" as="geometry" />
        </mxCell>
        <mxCell id="XCKD8g6T_-SE91dZSnoM-21665" value="&lt;font style=&quot;font-size: 15px&quot;&gt;Czynniki ludzkie&lt;br&gt;Ergonomia&lt;br&gt;Etnografia stosowana&lt;/font&gt;" style="text;html=1;strokeColor=none;fillColor=none;align=center;verticalAlign=middle;whiteSpace=wrap;rounded=0;" vertex="1" parent="1">
          <mxGeometry x="325" y="280" width="110" height="20" as="geometry" />
        </mxCell>
        <mxCell id="XCKD8g6T_-SE91dZSnoM-21666" value="&lt;font style=&quot;font-size: 15px&quot;&gt;Wydajność&lt;br&gt;Logika&lt;br&gt;Stosowność&lt;/font&gt;" style="text;html=1;strokeColor=none;fillColor=none;align=center;verticalAlign=middle;whiteSpace=wrap;rounded=0;" vertex="1" parent="1">
          <mxGeometry x="710" y="270" width="40" height="20" as="geometry" />
        </mxCell>
        <mxCell id="XCKD8g6T_-SE91dZSnoM-21667" value="&lt;font style=&quot;font-size: 14px&quot;&gt;Projektowanie partycypacyjne, Ideacja, Kreatywność grupowa, Badania projektowania generatywnego,&lt;br&gt;Narzędzia generatywne&amp;nbsp;&lt;/font&gt;" style="text;html=1;strokeColor=none;fillColor=none;align=center;verticalAlign=middle;whiteSpace=wrap;rounded=0;" vertex="1" parent="1">
          <mxGeometry x="375" y="550" width="35" height="10" as="geometry" />
        </mxCell>
        <mxCell id="XCKD8g6T_-SE91dZSnoM-21669" value="&lt;font color=&quot;#ffffff&quot;&gt;&lt;font style=&quot;font-size: 23px&quot;&gt;&amp;nbsp; &amp;nbsp;&amp;nbsp;&lt;/font&gt;&lt;font style=&quot;font-size: 62px&quot;&gt;UX&lt;/font&gt;&lt;font style=&quot;font-size: 23px&quot;&gt;&amp;nbsp;&lt;br&gt;&lt;div style=&quot;text-align: left&quot;&gt;&lt;span&gt;&amp;nbsp; &amp;nbsp; &amp;nbsp; &amp;nbsp; &amp;nbsp;Doświadczenie&amp;nbsp; &amp;nbsp; &amp;nbsp; &amp;nbsp; &amp;nbsp; &amp;nbsp; &amp;nbsp; &amp;nbsp;Użytkownika&lt;/span&gt;&lt;/div&gt;&lt;/font&gt;&lt;/font&gt;" style="text;html=1;strokeColor=none;fillColor=none;align=center;verticalAlign=middle;whiteSpace=wrap;rounded=0;" vertex="1" parent="1">
          <mxGeometry x="420" y="326" width="240" height="160" as="geometry" />
        </mxCell>
        <mxCell id="XCKD8g6T_-SE91dZSnoM-21670" value="&lt;font color=&quot;#000000&quot; style=&quot;font-size: 15px&quot;&gt;Klienci,&amp;nbsp;&lt;br&gt;Użytkownicy końcowi&lt;/font&gt;" style="text;html=1;strokeColor=none;fillColor=none;align=center;verticalAlign=middle;whiteSpace=wrap;rounded=0;fontColor=#FF8000;" vertex="1" parent="1">
          <mxGeometry x="225" y="420" width="40" height="20" as="geometry" />
        </mxCell>
      </root>
    </mxGraphModel>
  </diagram>
</mxfile>
